<?xml version="1.0" encoding="utf-8"?>
<!-- Svg Vector Icons : http://www.onlinewebfonts.com/icon -->
<!DOCTYPE svg PUBLIC "-//W3C//DTD SVG 1.1//EN" "http://www.w3.org/Graphics/SVG/1.1/DTD/svg11.dtd">
<svg version="1.1" xmlns="http://www.w3.org/2000/svg" xmlns:xlink="http://www.w3.org/1999/xlink" fill="#fff" width="50" height="50" viewBox="0 0 1000 1000" enable-background="new 0 0 1000 1000" xml:space="preserve">
<metadata> Svg Vector Icons : http://www.onlinewebfonts.com/icon </metadata>
<g><g><g><path stroke="#333" d="M210.5,201.5h62.1c3.1,0,5.5-2.5,5.5-5.5c0-3.1-2.5-5.6-5.5-5.6h-62.1c-3.1,0-5.5,2.5-5.5,5.6C205,199,207.5,201.5,210.5,201.5z"/><path d="M942.8,727.9v-62.1c0-3.1-2.5-5.5-5.5-5.5c-3,0-5.5,2.5-5.5,5.5v62.1c0,3.1,2.5,5.6,5.5,5.6C940.3,733.4,942.8,731,942.8,727.9z"/><path d="M10,919.7c0,31.2,25.3,56.6,56.5,56.6h350.1c20.8,0,38.9-11.3,48.6-28.1c5.9-10.1,16.4-19.7,28.1-19.7h440.1c31.2,0,56.5-25.4,56.5-56.5V521.7c0-31.2-25.3-56.5-56.5-56.5H495c-11.6,0-21.1,5-21.1,11c0,6.1,9.4,11,21.1,11h438.5c19,0,34.4,15.5,34.4,34.5v350.1c0,19-15.4,34.4-34.4,34.4H494.3c-11.6,0-21.1-4.9-21.1-10.9c0-6,9.4-10.9,21.1-10.9h398.2c3.1,0,5.6-2.5,5.6-5.5V514.7c0-3.1-2.5-5.5-5.6-5.5H494.3c-11.6,0-21.1-9.4-21.1-21.1V199.7c0-31.2-25.4-56.6-56.5-56.6H66.5c-31.2,0-56.5,25.4-56.5,56.6V919.7z M494.3,520.2H866c11.6,0,21.1,9.4,21.1,21.1v311c0,11.6-9.4,21.1-21.1,21.1H494.3c-11.6,0-21.1-9.4-21.1-21.1v-311C473.2,529.7,482.6,520.2,494.3,520.2z M451.1,199.7v719.9c0,19-15.4,34.5-34.4,34.5H66.5c-19,0-34.4-15.4-34.4-34.5V199.7c0-19,15.4-34.5,34.4-34.5h350.1C435.7,165.3,451.1,180.7,451.1,199.7z"/><path d="M54,240.6v632.1c0,3.1,2.5,5.5,5.5,5.5h364.2c3.1,0,5.5-2.5,5.5-5.5V240.6c0-3-2.5-5.5-5.5-5.5H59.5C56.4,235.1,54,237.6,54,240.6z M86.1,246.1h311c11.6,0,21.1,9.4,21.1,21.1v578.9c0,11.6-9.4,21.1-21.1,21.1h-311c-11.6,0-21.1-9.4-21.1-21.1V267.2C65,255.6,74.5,246.1,86.1,246.1z"/><path d="M273.4,890.9h-63.7c-13.1,0-23.7,10.6-23.7,23.7v3.8c0,13.1,10.6,23.7,23.7,23.7h63.7c13.1,0,23.7-10.6,23.7-23.7v-3.8C297.1,901.5,286.5,890.9,273.4,890.9z M286.1,918.3c0,7-5.7,12.7-12.7,12.7h-63.7c-7,0-12.7-5.7-12.7-12.7v-3.8c0-6.9,5.7-12.6,12.7-12.6h63.7c7,0,12.7,5.7,12.7,12.6V918.3L286.1,918.3z"/><path d="M578.9,43.8c-31.7-13.3-65.4-20.1-99.9-20.1c-65.3,0-127.7,24.1-175.6,68.1c0,0-0.6,0.5-1.4,1.2c-0.7,0.7,2,4.9,6.1,9.4c4.1,4.5,8.1,7.6,8.8,6.9l1.4-1.2C362.1,68,419.1,45.9,478.9,45.9c31.6,0,62.4,6.2,91.4,18.4c96.7,40.6,154.2,139.4,144.1,241.6c-0.8,8.1-8.2,12.7-16,10.3l-20-6c-7.8-2.4-11,1.5-7.1,8.7l27.8,52.1c3.8,7.2,12.8,9.9,19.9,6l52.1-27.8c7.2-3.8,6.7-8.9-1.1-11.2l-22.1-6.7c-7.8-2.3-12.9-10.8-12-18.9C749,199,686,88.8,578.9,43.8z"/></g></g><g></g><g></g><g></g><g></g><g></g><g></g><g></g><g></g><g></g><g></g><g></g><g></g><g></g><g></g><g></g></g>
</svg>