<svg width="34" height="26" viewBox="0 0 34 26" fill="none" xmlns="http://www.w3.org/2000/svg">
<path d="M6.79959 6.17571C1.93359 11.0254 0.543304 13.4502 0.543304 17.0161C0.543304 21.01 1.23845 21.8658 5.68736 23.8627C12.6388 26.7154 27.0978 25.8596 30.9906 22.2937C35.5785 18.0146 34.6053 13.8781 26.9587 6.60362C18.1999 -1.81197 15.0023 -1.81197 6.79959 6.17571ZM25.0123 9.17108C31.4077 15.7324 31.2686 19.441 24.5953 21.2952C21.6757 22.1511 17.9219 22.8642 16.1145 22.8642C11.9437 22.8642 3.32388 19.1557 3.32388 17.3014C3.32388 16.4456 5.54834 13.1649 8.32891 10.0269C14.7242 2.89505 18.617 2.60978 25.0123 9.17108Z" fill="black"/>
</svg>
